<mxfile host="Electron" agent="Mozilla/5.0 (Windows NT 10.0; Win64; x64) AppleWebKit/537.36 (KHTML, like Gecko) draw.io/25.0.2 Chrome/128.0.6613.186 Electron/32.2.5 Safari/537.36" version="25.0.2">
  <diagram name="第 1 页" id="y-8V5RZZgJeunSg6wXwD">
    <mxGraphModel dx="1050" dy="629" grid="1" gridSize="10" guides="1" tooltips="1" connect="1" arrows="1" fold="1" page="1" pageScale="1" pageWidth="1169" pageHeight="827" math="0" shadow="0">
      <root>
        <mxCell id="0" />
        <mxCell id="1" parent="0" />
        <mxCell id="hpATUU8GeMw36HXrT1q2-20" style="edgeStyle=orthogonalEdgeStyle;rounded=0;orthogonalLoop=1;jettySize=auto;html=1;entryX=0.5;entryY=0;entryDx=0;entryDy=0;labelBackgroundColor=none;fontColor=default;" edge="1" parent="1" source="hpATUU8GeMw36HXrT1q2-1" target="hpATUU8GeMw36HXrT1q2-17">
          <mxGeometry relative="1" as="geometry">
            <Array as="points">
              <mxPoint x="540" y="250" />
              <mxPoint x="340" y="250" />
            </Array>
          </mxGeometry>
        </mxCell>
        <mxCell id="hpATUU8GeMw36HXrT1q2-21" style="edgeStyle=orthogonalEdgeStyle;rounded=0;orthogonalLoop=1;jettySize=auto;html=1;labelBackgroundColor=none;fontColor=default;" edge="1" parent="1" source="hpATUU8GeMw36HXrT1q2-1" target="hpATUU8GeMw36HXrT1q2-19">
          <mxGeometry relative="1" as="geometry" />
        </mxCell>
        <mxCell id="hpATUU8GeMw36HXrT1q2-22" style="edgeStyle=orthogonalEdgeStyle;rounded=0;orthogonalLoop=1;jettySize=auto;html=1;entryX=0.5;entryY=0;entryDx=0;entryDy=0;labelBackgroundColor=none;fontColor=default;" edge="1" parent="1" source="hpATUU8GeMw36HXrT1q2-1" target="hpATUU8GeMw36HXrT1q2-18">
          <mxGeometry relative="1" as="geometry">
            <Array as="points">
              <mxPoint x="540" y="250" />
              <mxPoint x="720" y="250" />
            </Array>
          </mxGeometry>
        </mxCell>
        <mxCell id="hpATUU8GeMw36HXrT1q2-1" value="&lt;h1&gt;&lt;font style=&quot;font-size: 24px;&quot;&gt;心理健康网站&lt;/font&gt;&lt;/h1&gt;" style="rounded=0;whiteSpace=wrap;html=1;labelBackgroundColor=none;" vertex="1" parent="1">
          <mxGeometry x="460" y="160" width="160" height="60" as="geometry" />
        </mxCell>
        <mxCell id="hpATUU8GeMw36HXrT1q2-6" value="&lt;font style=&quot;font-size: 18px;&quot;&gt;用户认证与管理模块&lt;/font&gt;" style="rounded=0;whiteSpace=wrap;html=1;labelBackgroundColor=none;" vertex="1" parent="1">
          <mxGeometry x="780" y="650" width="190" height="56" as="geometry" />
        </mxCell>
        <mxCell id="hpATUU8GeMw36HXrT1q2-8" value="&lt;font style=&quot;font-size: 18px;&quot;&gt;心理健康自评与测试模块&lt;/font&gt;" style="rounded=0;whiteSpace=wrap;html=1;labelBackgroundColor=none;" vertex="1" parent="1">
          <mxGeometry x="780" y="716" width="200" height="56" as="geometry" />
        </mxCell>
        <mxCell id="hpATUU8GeMw36HXrT1q2-9" value="&lt;font style=&quot;font-size: 18px;&quot;&gt;在线咨询与预约模块&lt;/font&gt;" style="rounded=0;whiteSpace=wrap;html=1;labelBackgroundColor=none;" vertex="1" parent="1">
          <mxGeometry x="780" y="786" width="190" height="56" as="geometry" />
        </mxCell>
        <mxCell id="hpATUU8GeMw36HXrT1q2-10" value="&lt;font style=&quot;font-size: 18px;&quot;&gt;资源模块&lt;/font&gt;" style="rounded=0;whiteSpace=wrap;html=1;labelBackgroundColor=none;" vertex="1" parent="1">
          <mxGeometry x="340" y="700" width="190" height="56" as="geometry" />
        </mxCell>
        <mxCell id="hpATUU8GeMw36HXrT1q2-11" value="&lt;font style=&quot;font-size: 18px;&quot;&gt;社区模块&lt;/font&gt;" style="rounded=0;whiteSpace=wrap;html=1;labelBackgroundColor=none;" vertex="1" parent="1">
          <mxGeometry x="350" y="786" width="190" height="56" as="geometry" />
        </mxCell>
        <mxCell id="hpATUU8GeMw36HXrT1q2-12" value="&lt;font style=&quot;font-size: 18px;&quot;&gt;紧急求助模块&lt;/font&gt;" style="rounded=0;whiteSpace=wrap;html=1;labelBackgroundColor=none;" vertex="1" parent="1">
          <mxGeometry x="350" y="880" width="190" height="56" as="geometry" />
        </mxCell>
        <mxCell id="hpATUU8GeMw36HXrT1q2-13" value="&lt;font style=&quot;font-size: 18px;&quot;&gt;教育与培训模块&lt;/font&gt;" style="rounded=0;whiteSpace=wrap;html=1;labelBackgroundColor=none;" vertex="1" parent="1">
          <mxGeometry x="560" y="680" width="190" height="56" as="geometry" />
        </mxCell>
        <mxCell id="hpATUU8GeMw36HXrT1q2-14" value="&lt;font style=&quot;font-size: 18px;&quot;&gt;分析与统计模块&lt;/font&gt;" style="rounded=0;whiteSpace=wrap;html=1;labelBackgroundColor=none;" vertex="1" parent="1">
          <mxGeometry x="570" y="786" width="190" height="56" as="geometry" />
        </mxCell>
        <mxCell id="hpATUU8GeMw36HXrT1q2-15" value="&lt;font style=&quot;font-size: 18px;&quot;&gt;隐私与安全模块&lt;/font&gt;" style="rounded=0;whiteSpace=wrap;html=1;labelBackgroundColor=none;" vertex="1" parent="1">
          <mxGeometry x="570" y="870" width="190" height="56" as="geometry" />
        </mxCell>
        <mxCell id="hpATUU8GeMw36HXrT1q2-16" value="&lt;font style=&quot;font-size: 18px;&quot;&gt;后台管理模块&lt;/font&gt;" style="rounded=0;whiteSpace=wrap;html=1;labelBackgroundColor=none;" vertex="1" parent="1">
          <mxGeometry x="170" y="610" width="30" height="204" as="geometry" />
        </mxCell>
        <mxCell id="hpATUU8GeMw36HXrT1q2-17" value="&lt;font style=&quot;font-size: 18px;&quot;&gt;管理员&lt;/font&gt;" style="rounded=0;whiteSpace=wrap;html=1;labelBackgroundColor=none;" vertex="1" parent="1">
          <mxGeometry x="280" y="290" width="120" height="60" as="geometry" />
        </mxCell>
        <mxCell id="hpATUU8GeMw36HXrT1q2-18" value="&lt;span style=&quot;font-size: 18px;&quot;&gt;用户&lt;/span&gt;" style="rounded=0;whiteSpace=wrap;html=1;labelBackgroundColor=none;" vertex="1" parent="1">
          <mxGeometry x="660" y="290" width="120" height="60" as="geometry" />
        </mxCell>
        <mxCell id="hpATUU8GeMw36HXrT1q2-19" value="&lt;span style=&quot;font-size: 18px;&quot;&gt;老师&lt;/span&gt;" style="rounded=0;whiteSpace=wrap;html=1;labelBackgroundColor=none;" vertex="1" parent="1">
          <mxGeometry x="480" y="290" width="120" height="60" as="geometry" />
        </mxCell>
        <mxCell id="hpATUU8GeMw36HXrT1q2-23" value="&lt;h2&gt;角色设计&lt;/h2&gt;" style="rounded=1;whiteSpace=wrap;html=1;labelBackgroundColor=none;" vertex="1" parent="1">
          <mxGeometry x="50" y="290" width="120" height="60" as="geometry" />
        </mxCell>
        <mxCell id="hpATUU8GeMw36HXrT1q2-25" value="&lt;font style=&quot;font-size: 14px;&quot;&gt;职责：负责网站整体运营和维护，用户和内容管理。&lt;/font&gt;" style="text;html=1;align=center;verticalAlign=middle;resizable=0;points=[];autosize=1;strokeColor=none;fillColor=none;" vertex="1" parent="1">
          <mxGeometry x="150" y="380" width="350" height="30" as="geometry" />
        </mxCell>
        <mxCell id="hpATUU8GeMw36HXrT1q2-26" value="&lt;font style=&quot;font-size: 14px;&quot;&gt;权限：- 管理用户（用户/心理医生的注册审批、权限分配）&lt;/font&gt;&lt;div&gt;&lt;font style=&quot;font-size: 14px;&quot;&gt;- 审核内容（文章、课程、心理测试等）&lt;br&gt;&lt;/font&gt;&lt;/div&gt;&lt;div&gt;&lt;font style=&quot;font-size: 14px;&quot;&gt;-&amp;nbsp;管理预约、投诉和反馈&lt;/font&gt;&lt;/div&gt;&lt;div&gt;&lt;font style=&quot;font-size: 14px;&quot;&gt;-&amp;nbsp;查看并分析网站数据（用户活跃度、预约统计等）&lt;/font&gt;&lt;/div&gt;" style="text;html=1;align=center;verticalAlign=middle;resizable=0;points=[];autosize=1;strokeColor=none;fillColor=none;" vertex="1" parent="1">
          <mxGeometry x="145" y="400" width="390" height="80" as="geometry" />
        </mxCell>
      </root>
    </mxGraphModel>
  </diagram>
</mxfile>
